<?xml version="1.0" standalone="no"?>
<!DOCTYPE svg PUBLIC "-//W3C//DTD SVG 20010904//EN"
 "http://www.w3.org/TR/2001/REC-SVG-20010904/DTD/svg10.dtd">
<svg version="1.0" xmlns="http://www.w3.org/2000/svg"
 width="100.000000pt" height="100.000000pt" viewBox="0 0 100.000000 100.000000"
 preserveAspectRatio="xMidYMid meet">

<g transform="translate(0.000000,100.000000) scale(0.100000,-0.100000)"
fill="current" stroke="current">
<defs>
    <linearGradient id="Gradient1">
        <stop class="stop1" offset="5%">
            <animate class="logo-animation" attributeName="offset" dur="0.5s" values="0;0.5;0.05" repeatCount="4" begin="2s; 8s; 15s; 20s;" end="2.5s; 8.5s; 15.5s; 20.5s;"/>
        </stop>
        <stop class="stop2" offset="5%">
            <animate class="logo-animation" attributeName="offset" dur="0.5s" values="0.05;1;0.05" repeatCount="4"  begin="2s; 8s; 15s; 20s;" end="2.5s; 8.5s; 15.5s; 20.5s;"/>
        </stop>
        <stop class="stop3" offset="5%">
            <animate class="logo-animation" attributeName="offset" dur="0.5s" values="1;0;0.05" repeatCount="10"  begin="2s; 8s; 15s; 20s;" end="2.5s; 8.5s; 15.5s; 20.5s;"/>
        </stop>
    </linearGradient>
      <style type="text/css">
        .stop1 { stop-color: rgba(0,0,0,0.8);}
        .stop2 { stop-color: rgba(255,255,255,0.8);}
        .stop3 { stop-color: rgba(0,0,0,0.8);}
        .stop4 { stop-color: rgba(0,0,0,0.8);}
        
      ></style>
</defs>
<path class="main" d="M274 906 l-111 -54 -62 -116 -62 -116 11 -152 c13 -174 3 -154 142
-301 l83 -87 144 -21 144 -21 125 53 c115 49 127 57 161 103 66 90 70 100 91
233 l21 132 -42 116 -42 116 -101 71 c-110 79 -118 81 -291 91 l-100 6 -111
-53z m152 -28 c-6 -4 -36 -8 -66 -7 l-55 0 45 23 c42 22 46 23 66 7 15 -11 18
-18 10 -23z m134 28 c0 -2 -13 -9 -29 -14 -23 -8 -32 -7 -42 4 -10 12 -5 14
30 14 22 0 41 -2 41 -4z m128 -63 c17 -26 30 -49 28 -50 -1 -2 -38 12 -81 31
l-79 34 35 15 c53 24 64 20 97 -30z m-266 -40 c-17 -21 -43 -50 -59 -65 l-29
-28 -53 54 -54 54 44 6 c24 3 69 8 99 9 30 2 61 4 68 5 8 1 0 -15 -16 -35z
m381 -27 c-16 -9 -31 4 -55 48 -8 14 -1 12 30 -10 33 -24 38 -31 25 -38z
m-162 3 c52 -22 95 -42 97 -43 1 -2 -30 -28 -70 -59 -39 -32 -73 -55 -75 -53
-10 9 -60 196 -54 196 4 0 50 -18 102 -41z m-118 -72 c22 -77 23 -88 8 -82
-57 20 -151 61 -151 65 0 14 104 120 110 113 4 -4 19 -48 33 -96z m-213 -27
c0 -3 -29 -36 -64 -75 l-63 -69 4 84 c2 47 6 105 9 129 l6 44 54 -54 c30 -29
54 -56 54 -59z m576 -28 c27 -75 26 -85 -12 -96 -20 -6 -24 1 -46 81 l-24 88
20 12 c25 14 26 13 62 -85z m-744 -88 c-7 -13 -13 -10 -32 21 l-23 37 29 57
29 56 3 -78 c2 -42 -1 -84 -6 -93z m652 51 c8 -32 14 -61 12 -62 -4 -5 -147
27 -163 36 -8 4 12 26 54 59 75 59 73 60 97 -33z m-306 -17 c28 -12 52 -24 52
-27 0 -4 -36 -42 -79 -85 l-79 -79 -6 44 c-3 24 -7 79 -10 122 l-6 77 38 -16
c20 -9 61 -25 90 -36z m-156 -101 c3 -54 2 -96 -1 -95 -4 2 -37 21 -74 42
l-66 40 61 69 c43 48 64 64 68 55 4 -7 10 -57 12 -111z m379 32 c49 -11 89
-23 89 -25 0 -3 -29 -43 -65 -91 -40 -53 -67 -80 -70 -72 -5 14 -55 202 -55
207 0 4 13 2 101 -19z m-592 -91 c-11 -21 -22 -38 -24 -38 -3 0 -5 32 -5 72
l0 72 24 -34 24 -35 -19 -37z m482 -14 c16 -59 27 -109 26 -111 -2 -1 -35 6
-73 16 -38 11 -89 25 -113 31 l-44 12 83 83 c46 47 86 83 88 80 2 -2 17 -52
33 -111z m308 79 c0 -10 -4 -36 -8 -58 l-8 -40 -12 44 c-7 23 -10 49 -7 57 8
20 36 17 35 -3z m-55 -111 c10 -35 15 -66 12 -70 -7 -6 -156 -20 -156 -13 0
12 116 158 121 153 3 -4 14 -36 23 -70z m-571 -9 l39 -24 -39 -29 c-21 -16
-41 -30 -45 -30 -8 0 -38 94 -38 117 0 15 13 10 83 -34z m-110 -25 c8 -32 13
-58 11 -58 -3 0 -20 7 -39 15 l-35 14 22 45 c12 25 23 45 24 43 1 -1 9 -28 17
-59z m264 -164 c-4 -4 -152 58 -163 69 -3 3 13 19 37 36 l42 31 44 -66 c25
-36 43 -68 40 -70z m73 106 c41 -11 82 -23 90 -26 11 -4 0 -19 -40 -54 -61
-55 -49 -59 -114 43 -22 35 -32 57 -24 57 8 0 47 -9 88 -20z m315 -70 l-28
-40 -38 31 c-22 17 -39 35 -39 39 0 8 118 19 129 13 2 -2 -9 -21 -24 -43z
m-615 -1 c6 -10 10 -21 10 -25 0 -10 -30 17 -41 37 -7 15 -6 17 6 13 9 -4 20
-15 25 -25z m492 -10 c21 -17 36 -34 33 -38 -8 -7 -165 -18 -165 -11 0 5 82
79 89 80 2 0 21 -14 43 -31z m-337 -44 l60 -28 -45 -8 c-25 -5 -55 -11 -67
-14 -18 -4 -24 2 -37 42 -9 26 -16 48 -16 50 0 4 35 -10 105 -42z m295 -49 c0
-2 -20 -12 -45 -21 -38 -15 -47 -16 -61 -4 -15 12 -14 14 7 20 27 8 99 11 99
5z m-160 -21 c15 -18 3 -19 -51 -8 l-34 7 30 7 c17 4 33 7 36 8 4 0 12 -6 19
-14z"/>
</g>
</svg>
